<svg xmlns="http://www.w3.org/2000/svg" width="98" height="72" viewBox="0 0 98 72"><defs><linearGradient id="a" x1="-283.53" y1="59.123" x2="-271.311" y2="59.123" gradientTransform="scale(1 -1) rotate(68.641 -40.615 274.39)" gradientUnits="userSpaceOnUse"><stop offset=".01" stop-color="#00a7e3"/><stop offset=".337" stop-color="#009edc"/><stop offset=".875" stop-color="#0085c9"/><stop offset="1" stop-color="#007ec4"/></linearGradient></defs><path fill="none" d="M0 0H98V72H0z"/><path d="M92.2776,18.816a4.3735,4.3735,0,0,1,2.6,5.6l-15.8,42.5a4.3735,4.3735,0,0,1-5.6,2.6l-25.7-9.6a4.3735,4.3735,0,0,1-2.6-5.6l15.7-42.4a4.3735,4.3735,0,0,1,5.6-2.6Z" fill="#20aa4d"/><path d="M68.0776 35.516l4.3 4.5-.1.2-6.4-2.4-1.4 3.5 10.9 4.3 1.1-2.9a2.1791 2.1791 0 0 0-.4-2.2l-4.3-4.5.1-.2 6.4 2.5 1.4-3.5-10.9-4.3-1.1 2.9a2.0043 2.0043 0 0 0 .4 2.1M63.2776 48.716l4.4 3.4-.1.2-5.6-.5a2.3078 2.3078 0 0 0-2.2 1.3l-1.4 3.5 10.9 4.3 1.4-3.5-6.4-2.5.1-.2 7.2.5 1-2.5-5.7-4.5.1-.2 6.4 2.5 1.5-3.5-10.9-4.3-1.4 3.5a2.348 2.348 0 0 0 .7 2.5M74.3776 30.816l5.9 2.3 1.4-3.5-3.5-1.4 1.5-3.7a4.1808 4.1808 0 0 0-1.1-4.5z" fill="#fff"/><path d="M72.1776,21.716l-3,7.7a5.7588,5.7588,0,0,0,6.5-3.6l2.3-6c-.2-.1-.5-.3-.7-.4a3.9965,3.9965,0,0,0-5.1,2.3" fill="url(#a)"/><path fill="#010000" opacity=".2" style="isolation:isolate" d="M62.978 58.816L56.278 63.116 44.878 58.816 51.978 49.516 62.978 58.816z"/><path d="M67.0776,5.116a4.4416,4.4416,0,0,1,3.9,4.8l-5,45a4.4416,4.4416,0,0,1-4.8,3.9l-27.3-3a4.4416,4.4416,0,0,1-3.9-4.8l5-45a4.541,4.541,0,0,1,4.9-4Z"/><path d="M61.9871,41.4525l-1.7-.1984a.99.99,0,0,0-1.1885.9145,1.0525,1.0525,0,0,0,.3692,1.0046.998.998,0,0,0-.5841.8362.93.93,0,0,0,.3.8593L58.857,44.83l-.0633.5421,2.6991.315.0639-.5477L60.01,44.9592a.6517.6517,0,0,1-.6374-.7669c.0455-.39.3253-.58.7826-.5268l1.5528.1812.0639-.5477-1.5472-.1806a.6572.6572,0,0,1-.6374-.767c.0468-.4009.3259-.5858.7833-.5324L61.9232,42ZM60.3147,32.34l-.1147.9825-.8188-.0956-.0639.5477.8188.0956-.0666.57.4913.0573.0666-.57,1.2761.1489c.6268.0732,1.0252-.1036,1.1062-.7981a1.3886,1.3886,0,0,0-.1233-.7585l-.5.1134a1.0911,1.0911,0,0,1,.0918.5373c-.0343.2936-.2288.3911-.5.3595l-1.2874-.15.1147-.9825Zm.5168-5.0165a.84.84,0,0,0,.31.78l-.3275-.0382-.0626.5364,2.6991.315.0633-.5421-1.5189-.1773c-.4461-.0521-.709-.3-.6642-.6842a.963.963,0,0,1,.1106-.3591l-.4871-.24a1.2635,1.2635,0,0,0-.1222.4093ZM60.23,34.9286a2.0319,2.0319,0,0,0-.4108,1.0682c-.08.6832.1933,1.1386.73,1.2012.44.0514.7414-.2225.8966-.8168l.0718-.2721c.0827-.3166.2161-.4785.3686-.4607.209.0244.3168.2774.27.6783a1.41,1.41,0,0,1-.3871.8648l.3912.3261a2.028,2.028,0,0,0,.4865-1.128c.0909-.7792-.22-1.2506-.7342-1.3105-.4743-.0554-.7554.2438-.9092.8269l-.0718.2721c-.0635.25-.169.4668-.35.4457-.1976-.0231-.3081-.2535-.2705-.5753a1.7515,1.7515,0,0,1,.33-.8143Zm2.0905-8.0552a1.3546,1.3546,0,0,0,1.5827-1.2519,1.4234,1.4234,0,0,0-.2085-1.0088l-.4564.2329a1.1946,1.1946,0,0,1,.16.7342.9247.9247,0,0,1-1.83-.2135,1.1946,1.1946,0,0,1,.3252-.6775l-.3906-.3317a1.4235,1.4235,0,0,0-.4352.9336,1.3546,1.3546,0,0,0,1.2519,1.5827Zm-1.86,3.6292A1.3145,1.3145,0,0,0,61.7166,32,1.336,1.336,0,0,0,63.3,30.7938a1.6518,1.6518,0,0,0-.2492-1.1509l-.4345.2412a1.2945,1.2945,0,0,1,.1907.8178.7991.7991,0,0,1-.7971.7484l.2353-2.0159c-.0727-.0142-.1455-.0284-.2245-.0377a1.29,1.29,0,0,0-1.56,1.1058Zm.5012.07a.6922.6922,0,0,1,.7663-.6317l-.17,1.4569a.7268.7268,0,0,1-.5963-.8251Zm.062,7.4136-1.35-.1575-.0633.5421.3275.0382a1.0762,1.0762,0,0,0-.4974.8291,1.43,1.43,0,0,0,2.8346.3308,1.0763,1.0763,0,0,0-.2931-.9213l.3275.0382.0633-.5421Zm-.255,2.1852a.8507.8507,0,0,1-.8166-.9481.9259.9259,0,0,1,1.83.2135.8507.8507,0,0,1-1.0129.7346ZM61.7831,19.17a.84.84,0,0,0,.31.78l-.3275-.0382-.0626.5364,2.6991.315.0633-.5421-1.5189-.1773c-.4461-.0521-.709-.3-.6642-.6842A.9632.9632,0,0,1,62.3924,19l-.4871-.24a1.2636,1.2636,0,0,0-.1222.4093Zm1.1748,2.2434-1.35-.1575-.0633.5421.3275.0382a1.0762,1.0762,0,0,0-.4974.8291,1.43,1.43,0,0,0,2.8346.3308,1.0763,1.0763,0,0,0-.2931-.9214l.3275.0382.0633-.5421Zm-.255,2.1853a.8507.8507,0,0,1-.8166-.9481.9259.9259,0,0,1,1.83.2135.8507.8507,0,0,1-1.0129.7346Zm.891-7.6343L61.16,15.68l-.0633.5421,1.4117.1648a1.0763,1.0763,0,0,0-.4974.8292,1.43,1.43,0,0,0,2.8346.3308,1.0764,1.0764,0,0,0-.2931-.9214l.3275.0382.0633-.5421Zm-.255,2.1853a.8507.8507,0,0,1-.8166-.9481.9259.9259,0,0,1,1.83.2135A.8506.8506,0,0,1,63.3388,18.1493Z" fill="#fff"/><path transform="rotate(-83.343 47.954 29.182)" fill="#ff5f00" d="M43.034 21.147H52.873V37.218H43.034z"/><path d="M47.5013,33.06a10.203,10.203,0,0,1-7.5288-4.8089,10.2207,10.2207,0,1,0,15.9627,1.863A10.2031,10.2031,0,0,1,47.5013,33.06Z" fill="#eb001b"/><path d="M49.8707,12.7574a10.22,10.22,0,0,1,6.0645,17.3563,10.2221,10.2221,0,0,0-15.9627-1.863,10.22,10.22,0,0,1,9.8982-15.4934Z" fill="#f79e1b"/><path d="M31.0776,9.316a4.4232,4.4232,0,0,1,5.7,2.4l16.9,42a4.4232,4.4232,0,0,1-2.4,5.7l-25.5,10.3a4.4232,4.4232,0,0,1-5.7-2.4l-16.9-42a4.4232,4.4232,0,0,1,2.4-5.7Z" fill="#18236e"/><path fill="#fff" d="M35.978 39.716L37.178 42.716 25.178 45.616 23.978 42.616 35.978 39.716zM28.4776 22.116l-1.1-2.7-10.2 7.1 1 2.3a1.46 1.46 0 0 0 1.4 1h12.2l-1.3-3-1.9.1-1.6-3.7zm-2.6 4.9l-4.8.2 3.8-2.6zM23.1776 33.216l-2.6.6a11.0375 11.0375 0 0 0 .6 2.8c.6 1.5 2.7 4.6 5.8 3.3 2.9-1.2 1.2-5.3 2.8-5.9 1.5-.6 2.8 3.1 2.3 4.7l2.7-.6a8.3715 8.3715 0 0 0-.8-3.6c-.8-2-3.1-4.6-6-3.4s-1.5 5.4-2.7 6C23.9776 37.716 22.9776 34.716 23.1776 33.216zM34.3776 50.316l-4.7 3.2a1.4084 1.4084 0 0 0-.4 1.9l2 4.7h.2a12.08 12.08 0 0 1 .4-5.4A9.3531 9.3531 0 0 1 34.3776 50.316z"/><path d="M26.9776,49.816l8.9-.5-1.5,1h0a10.47,10.47,0,0,0-2.5,4.2,12.4366,12.4366,0,0,0-.4,1.6l8.7-6.6-1.3-3-13.2.1Z" fill="#fff"/></svg>