<?xml version="1.0" encoding="iso-8859-1"?>
<!-- Generator: Adobe Illustrator 19.0.0, SVG Export Plug-In . SVG Version: 6.00 Build 0)  -->
<svg version="1.1" id="Capa_1" xmlns="http://www.w3.org/2000/svg" xmlns:xlink="http://www.w3.org/1999/xlink" x="0px" y="0px"
	 viewBox="0 0 489.223 489.223" style="enable-background:new 0 0 489.223 489.223;" xml:space="preserve">
<g>
	<g>
		<path d="M235.1,348.193c0.3-1.8,0.8-3.5,1.2-5.1h-31.1h-17.5h-25c-2.3,0-4.1,1.8-4.1,4.1v13.1c0,2.3,1.8,4.1,4.1,4.1h25h17.5h29.2
			c-0.9-4.5-0.8-9.5,0.4-15.1L235.1,348.193z"/>
		<path d="M396.1,253.593c-4.9,6.2-9.9,12.5-15.1,18.9v119.5c0,1.1-0.9,2-2,2H33.2c-1.1,0-2-0.9-2-2v-188.4l280.8-0.1l13.3-18.9
			l15.7-21.8c1-1.4,1.8-2.5,2.5-3.4l11.4-15.7H33.2c-18.3,0-33.2,14.9-33.2,33.2v215.1c0,18.3,14.9,33.2,33.2,33.2H379
			c18.3,0,33.2-14.9,33.2-33.2v-130.5c-4.6-0.7-9-2.5-12.9-5.3C398.1,255.393,397.1,254.493,396.1,253.593z"/>
		<path d="M251,307.693h-88.2c-2.3,0-4.1,1.8-4.1,4.1v13.1c0,2.3,1.8,4.1,4.1,4.1h78.5C244.3,321.893,247.5,314.793,251,307.693z"/>
		<path d="M107.7,347.393c6.2-1.7,11.5-5,15.5-9.9c11.2-13.7,6.9-33.7-9-42.5c-5-2.8-10.3-4.9-15.6-7.1c-3-1.3-6-2.7-8.5-4.8
			c-5.1-4.1-4.1-10.6,1.9-13.2c1.7-0.7,3.4-1,5.2-1.1c6.9-0.4,13.4,0.9,19.7,3.9c3.1,1.5,4.1,1,5.2-2.2c1.1-3.4,2-6.9,3-10.3
			c0.7-2.3-0.2-3.9-2.4-4.8c-4-1.8-8.1-3-12.4-3.7c-5.6-0.9-5.6-0.9-5.7-6.6c0-8,0-8-8-8c-1.2,0-2.3,0-3.5,0
			c-3.7,0.1-4.4,0.8-4.5,4.5c0,1.7,0,3.4,0,5.1c0,5-0.1,4.9-4.8,6.7c-11.6,4.2-18.7,12.1-19.5,24.8c-0.7,11.2,5.1,18.7,14.3,24.2
			c5.7,3.4,11.9,5.4,17.9,8c2.3,1,4.6,2.2,6.5,3.8c5.8,4.8,4.7,12.7-2.1,15.7c-3.7,1.6-7.5,2-11.5,1.5c-6.1-0.8-12-2.4-17.5-5.3
			c-3.2-1.7-4.2-1.2-5.3,2.3c-0.9,3-1.8,6.1-2.6,9.1c-1.1,4.1-0.7,5.1,3.2,7c5,2.4,10.3,3.7,15.8,4.5c4.3,0.7,4.4,0.9,4.4,5.3
			c0,2,0,4,0.1,6c0,2.5,1.2,4,3.8,4.1c3,0.1,5.9,0.1,8.9,0c2.4-0.1,3.7-1.4,3.7-3.8c0-2.7,0.1-5.5,0-8.2
			C103.8,349.493,105,348.093,107.7,347.393z"/>
		<path d="M485.5,138.293l-20.1-14.7l5.5-8.9c2.5-4.6,4.7-9.3,6.6-14.2c0.5-1.6,1.2-3.1,1.6-4.7c3.2-11.1-0.1-19.1-10.9-26.8
			c-9.2-6.6-16.9-6.6-26.4-0.1c-6.4,4.4-11.7,10-16.8,15.9c-18.4,21.2-34.4,44.2-51.2,66.7l-20.1,28l0,0c-21.9,31-42.8,62.7-62,95.5
			c-12.7,21.6-24.8,43.4-34,66.9c-1,3.3-2.2,6.6-2.9,10c-0.7,3.9-2.6,8.7,1.4,11.5c3.9,2.7,7.8-0.3,11.3-2.4
			c9.4-5.7,17.5-13,25.4-20.6c38.1-37,71.4-78,103.6-120.1l0,0l0.2-0.2c2.9-3.8,5.8-7.6,8.7-11.4c0.5-0.7,0.9-1.4,1.2-2l13.7-18.6
			c0.6-0.5,1.1-1.1,1.7-2c11-15.6,22.3-31,33.2-46.7c0.2-0.3,0.4-0.6,0.6-0.8l12.2,8.9l-58.6,80.3c-2.9,4-2,9.5,1.9,12.4
			c2,1.5,4.4,2,6.6,1.6c2.3-0.4,4.4-1.6,5.8-3.5l63.9-87.5C490.4,146.693,489.5,141.193,485.5,138.293z"/>
		<path d="M270.1,272.393H162.8c-2.3,0-4.1,1.8-4.1,4.1v13.1c0,2.3,1.8,4.1,4.1,4.1h95.4C261.9,286.693,265.9,279.693,270.1,272.393
			z"/>
		<path d="M291.4,236.993H162.8c-2.3,0-4.1,1.8-4.1,4.1v13.1c0,2.3,1.8,4.1,4.1,4.1h115.6
			C282.6,251.293,286.9,244.093,291.4,236.993z"/>
	</g>
</g>
<g>
</g>
<g>
</g>
<g>
</g>
<g>
</g>
<g>
</g>
<g>
</g>
<g>
</g>
<g>
</g>
<g>
</g>
<g>
</g>
<g>
</g>
<g>
</g>
<g>
</g>
<g>
</g>
<g>
</g>
</svg>
