<?xml version="1.0" encoding="utf-8"?>
<!-- Generator: Adobe Illustrator 22.0.0, SVG Export Plug-In . SVG Version: 6.00 Build 0)  -->
<svg version="1.1" id="Layer_1" xmlns="http://www.w3.org/2000/svg" xmlns:xlink="http://www.w3.org/1999/xlink" x="0px" y="0px"
	 viewBox="0 0 283.5 141.7" style="enable-background:new 0 0 283.5 141.7;" xml:space="preserve">
<style type="text/css">
	.st0{clip-path:url(#SVGID_2_);}
	.st1{opacity:0.2;clip-path:url(#SVGID_4_);}
	.st2{clip-path:url(#SVGID_6_);fill-rule:evenodd;clip-rule:evenodd;fill:#87888A;}
	.st3{clip-path:url(#SVGID_4_);fill-rule:evenodd;clip-rule:evenodd;fill:#E20026;}
	.st4{clip-path:url(#SVGID_4_);}
</style>
<g>
	<defs>
		<rect id="SVGID_1_" x="0.1" y="-4.1" width="283.2" height="150"/>
	</defs>
	<clipPath id="SVGID_2_">
		<use xlink:href="#SVGID_1_"  style="overflow:visible;"/>
	</clipPath>
	<g class="st0">
		<defs>
			<rect id="SVGID_3_" x="0.1" y="-4.1" width="283.2" height="150"/>
		</defs>
		<clipPath id="SVGID_4_">
			<use xlink:href="#SVGID_3_"  style="overflow:visible;"/>
		</clipPath>
		<g class="st1">
			<g>
				<defs>
					<rect id="SVGID_5_" x="18.1" y="61" width="42.7" height="28.6"/>
				</defs>
				<clipPath id="SVGID_6_">
					<use xlink:href="#SVGID_5_"  style="overflow:visible;"/>
				</clipPath>
				<path class="st2" d="M34.2,70.2h15.3l2.8,9.3L60.7,61H38.4C37,64.1,35.6,67.2,34.2,70.2"/>
				<path class="st2" d="M18.1,89.6h22.4l3.8-8.4h0l4.2-9.3H33.1h-7c-1.4,3.1-2.8,6.2-4.2,9.2h0C20.6,83.9,19.3,86.7,18.1,89.6"/>
			</g>
		</g>
		<path class="st3" d="M33.5,68.7h15.3l2.8,9.3l8.4-18.5H37.7C36.3,62.5,34.9,65.6,33.5,68.7"/>
		<path class="st3" d="M17.4,88h22.4l3.8-8.4l4.2-9.2H32.4h-7c-1.4,3.1-2.8,6.2-4.2,9.2h0C19.9,82.4,18.6,85.2,17.4,88"/>
		<polygon class="st4" points="89,82.9 89,73.4 82.5,82.9 80.5,82.9 73.9,73.4 73.9,82.9 71.7,82.9 71.7,69.3 74,69.3 81.6,80.4 
			89.2,69.3 91.3,69.3 91.3,82.9 		"/>
		<polygon class="st4" points="94.6,82.9 94.6,69.3 107.8,69.3 107.8,71.3 97,71.3 97,74.7 107.2,74.7 107.2,76.7 97,76.7 97,80.9 
			107.8,80.9 107.8,82.9 		"/>
		<path class="st4" d="M123,82.9l-3-6.1h-6.8v6.1h-2.4V69.3h10.9c0.7,0,1.4,0.1,1.9,0.2c0.5,0.2,0.9,0.4,1.3,0.7
			c0.3,0.3,0.6,0.6,0.7,1c0.1,0.4,0.2,0.8,0.2,1.3v1c0,0.9-0.2,1.6-0.7,2.2c-0.5,0.6-1.3,0.9-2.4,1.1l3,6.1H123z M123.3,72.5
			c0-0.8-0.5-1.3-1.6-1.3h-8.5v3.5h8.5c1.1,0,1.6-0.4,1.6-1.3V72.5z"/>
		<path class="st4" d="M162.3,82.9c-0.7,0-1.3-0.1-1.9-0.2c-0.5-0.2-0.9-0.4-1.3-0.7c-0.3-0.3-0.6-0.6-0.7-1
			c-0.1-0.4-0.2-0.8-0.2-1.3v-7c0-0.5,0.1-0.9,0.2-1.3c0.1-0.4,0.4-0.8,0.7-1c0.3-0.3,0.7-0.5,1.3-0.7c0.5-0.2,1.1-0.2,1.9-0.2h10.4
			v2h-10.4c-1.1,0-1.6,0.4-1.6,1.3v7.1c0,0.8,0.5,1.3,1.6,1.3h10.4v2H162.3z"/>
		<path class="st4" d="M197.8,77.9v5h-2.4V69.3h10.5c0.7,0,1.4,0.1,1.9,0.2c0.5,0.2,0.9,0.4,1.3,0.7c0.3,0.3,0.6,0.6,0.7,1
			c0.1,0.4,0.2,0.8,0.2,1.3v2c0,0.5-0.1,0.9-0.2,1.3c-0.1,0.4-0.4,0.7-0.7,1c-0.3,0.3-0.7,0.5-1.3,0.7c-0.5,0.2-1.1,0.2-1.9,0.2
			H197.8z M207.5,72.5c0-0.8-0.5-1.3-1.6-1.3h-8.1v4.6h8.1c1.1,0,1.6-0.4,1.6-1.3V72.5z"/>
		<rect x="212.6" y="69.3" class="st4" width="2.4" height="13.6"/>
		<polygon class="st4" points="224.4,82.9 224.4,71.3 217.7,71.3 217.7,69.3 233.4,69.3 233.4,71.3 226.8,71.3 226.8,82.9 		"/>
		<polygon class="st4" points="252.3,82.9 252.3,69.3 254.7,69.3 254.7,80.9 265.1,80.9 265.1,82.9 		"/>
		<path class="st4" d="M130.1,82.9l1.9-3.1h9.5l1.9,3.1h2.7l-8.4-13.5h-1.8l-8.5,13.5H130.1z M136.8,72l3.4,5.6h-6.9L136.8,72z"/>
		<path class="st4" d="M177.2,82.9l1.9-3.1h9.5l1.9,3.1h2.7l-8.4-13.5H183l-8.5,13.5H177.2z M183.9,72l3.4,5.6h-6.9L183.9,72z"/>
		<path class="st4" d="M234.1,82.9l1.9-3.1h9.5l1.9,3.1h2.7l-8.4-13.5h-1.8l-8.5,13.5H234.1z M240.8,72l3.4,5.6h-6.9L240.8,72z"/>
	</g>
</g>
</svg>
