<?xml version="1.0" encoding="utf-8"?>
<!-- Generator: Adobe Illustrator 18.1.1, SVG Export Plug-In . SVG Version: 6.00 Build 0)  -->
<svg version="1.1" id="Layer_1" xmlns="http://www.w3.org/2000/svg" xmlns:xlink="http://www.w3.org/1999/xlink" x="0px" y="0px"
	 viewBox="0 0 424 108.7" enable-background="new 0 0 424 108.7" xml:space="preserve">
<g>
	<g>
		<path fill="#FFFFFF" d="M221.7,45.7l-17.2,25.7h5.5l3.9-5.9H233l3.8,5.9h5.5l-17.1-25.7H221.7z M216.4,61.5l7.1-10.7l6.9,10.7
			H216.4z"/>
		<polygon fill="#FFFFFF" points="198,45.8 188.3,56.2 180.1,56.2 180.1,45.8 175.3,45.8 175.3,71.5 180.1,71.5 180.1,60 188.5,60 
			198.2,71.5 203.7,71.5 192.4,57.7 203.8,45.8 		"/>
		<polygon fill="#FFFFFF" points="242.8,45.8 242.8,71.5 247.7,71.5 247.7,49.5 270,49.5 270,71.5 274.9,71.5 274.9,45.8 		"/>
		<polygon fill="#FFFFFF" points="346,45.8 314.6,45.8 314.6,49.6 328,49.6 328,71.5 332.9,71.5 332.9,49.6 346,49.6 		"/>
		<polygon fill="#FFFFFF" points="306.6,45.7 284.2,66 284.3,45.7 279.4,45.7 279.4,71.4 284.2,71.5 284.2,71.4 306.6,51.1 
			306.6,71.4 311.5,71.4 311.5,45.7 		"/>
		<path fill="#FFFFFF" d="M360.1,45.8h-3.6l-17.2,25.7h5.5l3.9-5.9h19.3l3.8,5.9h5.5L360.1,45.8z M351.3,61.5l7.1-10.7l6.9,10.7
			H351.3z"/>
		<polygon fill="#FFFFFF" points="398.3,45.8 394.8,45.8 377.7,71.5 383.1,71.5 396.5,50.8 409.8,71.5 415.3,71.5 		"/>
	</g>
	<g>
		<polygon fill="#FFFFFF" points="20.1,53.5 33.3,71.5 37.2,71.5 50.3,53.4 50.3,71.5 54.8,71.5 54.8,45.7 50.7,45.7 35.5,66.7 
			20.2,45.7 15.7,45.7 15.7,71.5 20.1,71.5 		"/>
		<polygon fill="#FFFFFF" points="86,67.7 64.4,67.7 64.4,59.8 84.9,59.8 84.9,56 64.4,56 64.4,49.5 86,49.5 86,45.7 59.6,45.7 
			59.6,71.5 86,71.5 		"/>
		<path fill="#FFFFFF" d="M115,61.5c1-0.3,1.9-0.7,2.5-1.3c0.6-0.5,1.1-1.2,1.4-2c0.3-0.8,0.4-1.6,0.4-2.5v-3.8
			c0-0.9-0.1-1.8-0.4-2.5c-0.3-0.8-0.8-1.4-1.4-2c-0.6-0.5-1.5-1-2.5-1.3c-1-0.3-2.3-0.5-3.7-0.5H90.2v25.7H95V62h16.2
			C112.7,62,113.9,61.8,115,61.5z M95,49.5h16.2c2.1,0,3.2,0.8,3.2,2.4v3.9c0,1.6-1.1,2.4-3.2,2.4H95V49.5z"/>
		<path fill="#FFFFFF" d="M121.1,71.5l3.8-5.9h19.1l3.8,5.9h5.5l-17-25.7h-3.5l-17.1,25.7H121.1z M134.6,50.7l6.9,10.7h-13.9
			L134.6,50.7z"/>
	</g>
	<g>
		<g opacity="0.2">
			<path fill-rule="evenodd" clip-rule="evenodd" fill="#87888A" d="M-60.2,47.2h31l5.7,17.6l17-35.2h-45.2
				C-54.6,35.5-57.4,41.4-60.2,47.2L-60.2,47.2z"/>
			<path fill-rule="evenodd" clip-rule="evenodd" fill="#87888A" d="M-92.8,84h45.2l7.7-16.1h0l8.5-17.6h-31h-14.2
				c-2.8,5.9-5.6,11.7-8.5,17.6h0C-87.6,73.3-90.2,78.6-92.8,84z"/>
		</g>
		<g>
			<path fill-rule="evenodd" clip-rule="evenodd" fill="#E20026" d="M-61.6,44.2h31l5.7,17.6l17-35.2h-45.2
				C-56,32.5-58.8,38.4-61.6,44.2L-61.6,44.2z"/>
			<path fill-rule="evenodd" clip-rule="evenodd" fill="#E20026" d="M-94.2,81H-49l7.7-16.1l0,0l8.5-17.6h-31H-78
				c-2.8,5.9-5.6,11.7-8.5,17.6h0C-89,70.3-91.6,75.7-94.2,81z"/>
		</g>
	</g>
</g>
</svg>
